Coordinates
version=1
nRows=24
nColumns=24
inDegrees=yes

Units are S.I. units (second, meters, Newtons, ...)
Angles are in degrees.

endheader
time	pelvis_tilt	pelvis_list	pelvis_rotation	pelvis_tx	pelvis_ty	pelvis_tz	hip_flexion_r	hip_adduction_r	hip_rotation_r	knee_angle_r	ankle_angle_r	subtalar_angle_r	mtp_angle_r	hip_flexion_l	hip_adduction_l	hip_rotation_l	knee_angle_l	ankle_angle_l	subtalar_angle_l	mtp_angle_l	lumbar_extension	lumbar_bending	lumbar_rotation
      1.07500000	     -4.53965478	     -0.72432284	      1.84155173	     -0.47165931	      1.29240231	     -0.65882283	     28.89460651	      2.43011026	      7.17794496	     -8.85080034	     -9.85781464	      1.87555887	     22.35798788	    -14.12547137	      2.02514961	     -4.80199764	     -9.31021962	      7.38994911	   -344.18224377	    378.84286120	    -11.15146828	      0.64079579	     -5.33032064
      1.08000000	     -4.41033817	     -0.84668016	      2.00434285	     -0.46465144	      1.29154047	     -0.65848949	     28.80555002	      2.64042950	      7.28361007	     -9.65291798	     -9.56961064	      2.28819250	     22.51323456	    -14.48167832	      1.75475384	     -4.86816324	     -9.75119966	      7.28548238	   -343.78375766	    379.21985453	    -11.18956004	      0.84582431	     -5.56556632
      1.08500000	     -4.45913026	     -0.90900151	      2.19422565	     -0.45753248	      1.29056048	     -0.65808525	     28.86343066	      2.79182487	      7.46174509	    -10.43316628	     -9.25184133	      2.66087612	     22.74605626	    -14.60042952	      1.53519241	     -4.89137729	    -10.27918091	      7.13021254	   -343.47555040	    379.73397186	    -10.99517566	      0.95806181	     -5.86267919
      1.09000000	     -4.43599244	     -0.94492717	      2.36766139	     -0.45043458	      1.28963139	     -0.65786102	     28.90526532	      2.92190858	      7.36686398	    -11.32458393	     -9.43532438	      3.30198413	     23.56281421	    -14.79413868	      1.35378113	     -4.81834409	    -10.80098479	      6.89642448	   -343.27152034	    380.29278119	    -10.87738444	      1.01543136	     -5.95154614
      1.09500000	     -4.40429435	     -1.02472950	      2.50260131	     -0.44338934	      1.28881170	     -0.65753964	     28.95121639	      3.10654700	      7.14680122	    -12.10908336	    -11.01080177	      3.54056680	     25.10792678	    -14.94633535	      1.12538194	     -4.89027410	    -11.39677563	      6.59419344	   -343.03239314	    380.99215271	    -10.77989911	      1.15044515	     -6.19582922
      1.10000000	     -4.48793485	     -1.18772217	      2.62175871	     -0.43643144	      1.28807606	     -0.65722016	     29.09873738	      3.35939331	      6.97776414	    -12.70256162	    -13.48720355	      3.06922454	     26.29267601	    -14.94688008	      0.81920156	     -4.85296770	    -12.03213180	      6.33757944	   -342.87319284	    381.44468568	    -10.57604019	      1.38482968	     -6.33791661
      1.10500000	     -4.54641864	     -1.37102338	      2.72704521	     -0.42953840	      1.28755093	     -0.65686897	     29.24718836	      3.60658455	      6.83722746	    -13.32894393	    -15.44171161	      2.28378841	     27.10496787	    -14.93179884	      0.49117752	     -4.76768575	    -12.73555767	      6.02877209	   -342.73348296	    381.82874538	    -10.39175136	      1.62199746	     -6.42841164
      1.11000000	     -4.62566490	     -1.60926687	      2.79194503	     -0.42274045	      1.28718652	     -0.65642566	     29.35826864	      3.92686255	      7.00010639	    -13.83436486	    -16.13790311	      1.43933268	     28.19041997	    -14.82780472	      0.11442010	     -4.68266365	    -13.52354853	      5.65769923	   -342.77604627	    382.30602030	    -10.21713872	      1.90093843	     -6.40764831
      1.11500000	     -4.69011894	     -1.79138329	      2.77450829	     -0.41606085	      1.28686134	     -0.65581692	     29.59172920	      4.25918444	      6.98672168	    -14.72432941	    -15.31243231	      1.59479938	     28.32073914	    -14.71947636	     -0.17899508	     -4.61183857	    -14.33476346	      5.17020335	   -342.94291842	    382.91131488	    -10.07616036	      2.09848559	     -6.27902444
      1.12000000	     -4.79993511	     -1.94874386	      2.70060678	     -0.40935771	      1.28666717	     -0.65520189	     29.97590784	      4.58210328	      6.71917216	    -15.94234306	    -14.21040425	      1.94103671	     27.47433567	    -14.45336668	     -0.45038045	     -4.76107336	    -15.35847592	      4.65718723	   -342.90992746	    383.40335106	     -9.89656311	      2.32884392	     -6.27136051
      1.12500000	     -4.88460185	     -2.12765201	      2.68314589	     -0.40258001	      1.28662981	     -0.65464270	     30.38494369	      4.89351205	      6.33718887	    -17.37840790	    -13.41118517	      2.09484763	     25.86746135	    -14.18430773	     -0.74482977	     -4.79113872	    -16.42448053	      4.05218635	   -343.03455949	    383.79721493	     -9.75543928	      2.57892072	     -6.29178283
      1.13000000	     -4.91230498	     -2.31961953	      2.62378319	     -0.39588700	      1.28669340	     -0.65399780	     30.71764077	      5.24531167	      6.11419686	    -18.81971903	    -12.57388940	      2.20190624	     24.35223383	    -13.91117556	     -1.05889437	     -4.86932228	    -17.59089454	      3.30931528	   -343.17532182	    384.39775788	     -9.68988466	      2.83168852	     -6.15844695
      1.13500000	     -4.89231243	     -2.53225643	      2.65670655	     -0.38910738	      1.28702601	     -0.65345598	     30.87492346	      5.57767192	      6.04142180	    -20.05345229	    -11.53572247	      2.66265150	     23.33314912	    -13.63806558	     -1.41261780	     -4.86288324	    -18.78241584	      2.37537830	   -343.43021311	    385.19817886	     -9.67552320	      3.11395312	     -6.18885815
      1.14000000	     -4.69858183	     -2.76918328	      2.70839535	     -0.38234929	      1.28766479	     -0.65298568	     30.72185747	      5.92668711	      5.98114150	    -21.00808415	    -10.71061941	      3.27323185	     22.92348471	    -13.45803898	     -1.80969765	     -4.89716044	    -20.11102574	      1.34810294	   -343.65670844	    385.97998773	     -9.87836180	      3.48007778	     -6.28859761
      1.14500000	     -4.57770087	     -3.00097725	      2.74023480	     -0.37559417	      1.28827591	     -0.65249580	     30.62129937	      6.28386066	      5.95880879	    -21.90009301	    -10.05332276	      3.64726548	     21.99862723	    -13.08333057	     -2.22817597	     -5.11408363	    -21.63197145	      0.23419252	   -343.63406329	    386.84474999	    -10.01569798	      3.86063964	     -6.38387801
      1.15000000	     -4.46443981	     -3.21365222	      2.76583952	     -0.36880886	      1.28906055	     -0.65216097	     30.41070071	      6.61666264	      5.98538337	    -22.60616198	     -9.39884740	      3.63890228	     20.76206513	    -12.67148887	     -2.60111612	     -5.14957332	    -23.13962016	     -1.12901095	   -343.99320847	    387.84587325	    -10.10312880	      4.19548059	     -6.37011772
      1.15500000	     -4.26567475	     -3.36129735	      2.78083997	     -0.36230066	      1.28997691	     -0.65172681	     30.04116793	      6.88568293	      6.03202525	    -23.15041841	     -8.79730702	      3.69487094	     19.91765441	    -12.25969334	     -2.91740104	     -5.16371904	    -24.74014137	     -2.71103479	   -344.42701672	    388.87691923	    -10.33352735	      4.41101030	     -6.16218662
      1.16000000	     -4.22851352	     -3.54303215	      2.85008926	     -0.35573756	      1.29076015	     -0.65118375	     29.75561017	      7.16296636	      6.05233158	    -23.53190865	     -8.27285435	      3.66719530	     19.39639778	    -11.55822178	     -3.32282538	     -5.23405130	    -26.48435215	     -4.41036865	   -344.74528982	    390.14945743	    -10.35367231	      4.62025953	     -6.03909048
      1.16500000	     -4.19812879	     -3.67584399	      2.88951235	     -0.34935315	      1.29151420	     -0.65056003	     29.42442189	      7.40441505	      6.08620585	    -23.80272530	     -7.76160014	      3.67618483	     18.85622810	    -10.71559567	     -3.69258427	     -5.31039954	    -28.41102037	     -6.20616197	   -345.09167822	    391.09140778	    -10.36490195	      4.69662436	     -5.72024524
      1.17000000	     -4.10097502	     -3.87120338	      2.97762852	     -0.34300941	      1.29231670	     -0.65006098	     28.97368267	      7.67807766	      5.99356284	    -23.96774889	     -7.26647125	      3.69923471	     18.40689311	     -9.86159285	     -4.14710608	     -5.34846981	    -30.38785205	     -8.23541600	   -345.66750659	    392.50957212	    -10.49677147	      4.95641781	     -5.68863831
      1.17500000	     -4.13086829	     -4.02704013	      3.07322948	     -0.33674260	      1.29294265	     -0.64949455	     28.66240129	      7.87987311	      5.78157850	    -24.11372060	     -6.81282830	      3.87279004	     18.04038195	     -8.80545791	     -4.54244173	     -5.26167459	    -32.41096237	    -10.31126904	   -346.36187639	    393.96334944	    -10.46712544	      5.11235858	     -5.52780742
      1.18000000	     -4.19727224	     -4.24508876	      3.25071805	     -0.33073353	      1.29357023	     -0.64915363	     28.33762420	      8.10229916	      5.54644160	    -24.13782839	     -6.41944560	      3.87094658	     17.38216600	     -7.59915590	     -4.97036386	     -4.96279215	    -34.51926049	    -12.42878098	   -347.27292766	    395.57779083	    -10.42827236	      5.38803923	     -5.45002134
      1.18500000	     -4.30118962	     -4.44182650	      3.39483655	     -0.32470818	      1.29419354	     -0.64878664	     28.00751741	      8.33137168	      5.45197544	    -24.07803287	     -6.01468725	      3.77744947	     16.92965958	     -6.34207065	     -5.34634586	     -4.60107920	    -36.63100528	    -14.06392466	   -348.01191539	    396.40273202	    -10.28417225	      5.57189631	     -5.19411123
      1.19000000	     -4.43383377	     -4.68119452	      3.59105819	     -0.31893818	      1.29475907	     -0.64860075	     27.74565145	      8.54310089	      5.23220904	    -24.03307407	     -5.63966568	      3.79290508	     16.64637236	     -4.95172184	     -5.72828786	     -4.13056682	    -38.88272200	    -15.00870120	   -348.71112267	    396.34343750	    -10.15827592	      5.82820368	     -4.97129722
